<?xml version="1.0" encoding="UTF-8" standalone="no"?>
<!DOCTYPE svg PUBLIC "-//W3C//DTD SVG 1.1//EN"
 "http://www.w3.org/Graphics/SVG/1.1/DTD/svg11.dtd">
<!-- Generated by graphviz version 2.28.0 (20120228.1928)
 -->
<!-- Title: G Pages: 1 -->
<svg width="636pt" height="1764pt"
 viewBox="0.00 0.00 636.00 1764.00" xmlns="http://www.w3.org/2000/svg" xmlns:xlink="http://www.w3.org/1999/xlink">
<g id="graph1" class="graph" transform="scale(1 1) rotate(0) translate(4 1760)">
<title>G</title>
<polygon fill="white" stroke="white" points="-4,5 -4,-1760 633,-1760 633,5 -4,5"/>
<g id="graph3" class="cluster"><title>cluster_Account_Driver</title>
<polyline fill="none" stroke="gray" points="506,-1676 571,-1676 "/>
<path fill="none" stroke="gray" d="M571,-1676C577,-1676 583,-1682 583,-1688"/>
<polyline fill="none" stroke="gray" points="583,-1688 583,-1736 "/>
<path fill="none" stroke="gray" d="M583,-1736C583,-1742 577,-1748 571,-1748"/>
<polyline fill="none" stroke="gray" points="571,-1748 506,-1748 "/>
<path fill="none" stroke="gray" d="M506,-1748C500,-1748 494,-1742 494,-1736"/>
<polyline fill="none" stroke="gray" points="494,-1736 494,-1688 "/>
<path fill="none" stroke="gray" d="M494,-1688C494,-1682 500,-1676 506,-1676"/>
<text text-anchor="middle" x="538.5" y="-1735.2" font-family="Times,serif" font-size="11.00" fill="gray">Account_Driver</text>
</g>
<g id="graph5" class="cluster"><title>cluster_CP_Module</title>
<polyline fill="none" stroke="gray" points="494,-1380 584,-1380 "/>
<path fill="none" stroke="gray" d="M584,-1380C590,-1380 596,-1386 596,-1392"/>
<polyline fill="none" stroke="gray" points="596,-1392 596,-1656 "/>
<path fill="none" stroke="gray" d="M596,-1656C596,-1662 590,-1668 584,-1668"/>
<polyline fill="none" stroke="gray" points="584,-1668 494,-1668 "/>
<path fill="none" stroke="gray" d="M494,-1668C488,-1668 482,-1662 482,-1656"/>
<polyline fill="none" stroke="gray" points="482,-1656 482,-1392 "/>
<path fill="none" stroke="gray" d="M482,-1392C482,-1386 488,-1380 494,-1380"/>
<text text-anchor="middle" x="539" y="-1655.2" font-family="Times,serif" font-size="11.00" fill="gray">CP_Module</text>
</g>
<g id="graph6" class="cluster"><title>cluster_Cart_Driver</title>
<polyline fill="none" stroke="gray" points="511,-1300 567,-1300 "/>
<path fill="none" stroke="gray" d="M567,-1300C573,-1300 579,-1306 579,-1312"/>
<polyline fill="none" stroke="gray" points="579,-1312 579,-1360 "/>
<path fill="none" stroke="gray" d="M579,-1360C579,-1366 573,-1372 567,-1372"/>
<polyline fill="none" stroke="gray" points="567,-1372 511,-1372 "/>
<path fill="none" stroke="gray" d="M511,-1372C505,-1372 499,-1366 499,-1360"/>
<polyline fill="none" stroke="gray" points="499,-1360 499,-1312 "/>
<path fill="none" stroke="gray" d="M499,-1312C499,-1306 505,-1300 511,-1300"/>
<text text-anchor="middle" x="539" y="-1359.2" font-family="Times,serif" font-size="11.00" fill="gray">Cart_Driver</text>
</g>
<g id="graph7" class="cluster"><title>cluster_Checkout_Driver</title>
<polyline fill="none" stroke="gray" points="504,-1220 573,-1220 "/>
<path fill="none" stroke="gray" d="M573,-1220C579,-1220 585,-1226 585,-1232"/>
<polyline fill="none" stroke="gray" points="585,-1232 585,-1280 "/>
<path fill="none" stroke="gray" d="M585,-1280C585,-1286 579,-1292 573,-1292"/>
<polyline fill="none" stroke="gray" points="573,-1292 504,-1292 "/>
<path fill="none" stroke="gray" d="M504,-1292C498,-1292 492,-1286 492,-1280"/>
<polyline fill="none" stroke="gray" points="492,-1280 492,-1232 "/>
<path fill="none" stroke="gray" d="M492,-1232C492,-1226 498,-1220 504,-1220"/>
<text text-anchor="middle" x="538.5" y="-1279.2" font-family="Times,serif" font-size="11.00" fill="gray">Checkout_Driver</text>
</g>
<g id="graph8" class="cluster"><title>cluster_Gateway_Driver</title>
<polyline fill="none" stroke="gray" points="470,-1086 608,-1086 "/>
<path fill="none" stroke="gray" d="M608,-1086C614,-1086 620,-1092 620,-1098"/>
<polyline fill="none" stroke="gray" points="620,-1098 620,-1200 "/>
<path fill="none" stroke="gray" d="M620,-1200C620,-1206 614,-1212 608,-1212"/>
<polyline fill="none" stroke="gray" points="608,-1212 470,-1212 "/>
<path fill="none" stroke="gray" d="M470,-1212C464,-1212 458,-1206 458,-1200"/>
<polyline fill="none" stroke="gray" points="458,-1200 458,-1098 "/>
<path fill="none" stroke="gray" d="M458,-1098C458,-1092 464,-1086 470,-1086"/>
<text text-anchor="middle" x="539" y="-1199.2" font-family="Times,serif" font-size="11.00" fill="gray">Gateway_Driver</text>
</g>
<g id="graph9" class="cluster"><title>cluster_Library</title>
<polyline fill="none" stroke="gray" points="494,-196 584,-196 "/>
<path fill="none" stroke="gray" d="M584,-196C590,-196 596,-202 596,-208"/>
<polyline fill="none" stroke="gray" points="596,-208 596,-1066 "/>
<path fill="none" stroke="gray" d="M596,-1066C596,-1072 590,-1078 584,-1078"/>
<polyline fill="none" stroke="gray" points="584,-1078 494,-1078 "/>
<path fill="none" stroke="gray" d="M494,-1078C488,-1078 482,-1072 482,-1066"/>
<polyline fill="none" stroke="gray" points="482,-1066 482,-208 "/>
<path fill="none" stroke="gray" d="M482,-208C482,-202 488,-196 494,-196"/>
<text text-anchor="middle" x="539" y="-1065.2" font-family="Times,serif" font-size="11.00" fill="gray">Library</text>
</g>
<g id="graph10" class="cluster"><title>cluster_Shipping_Driver</title>
<polyline fill="none" stroke="gray" points="506,-8 571,-8 "/>
<path fill="none" stroke="gray" d="M571,-8C577,-8 583,-14 583,-20"/>
<polyline fill="none" stroke="gray" points="583,-20 583,-176 "/>
<path fill="none" stroke="gray" d="M583,-176C583,-182 577,-188 571,-188"/>
<polyline fill="none" stroke="gray" points="571,-188 506,-188 "/>
<path fill="none" stroke="gray" d="M506,-188C500,-188 494,-182 494,-176"/>
<polyline fill="none" stroke="gray" points="494,-176 494,-20 "/>
<path fill="none" stroke="gray" d="M494,-20C494,-14 500,-8 506,-8"/>
<text text-anchor="middle" x="538.5" y="-175.2" font-family="Times,serif" font-size="11.00" fill="gray">Shipping_Driver</text>
</g>
<g id="graph11" class="cluster"><title>cluster_default</title>
<polyline fill="none" stroke="none" points="260,-682 390,-682 "/>
<path fill="none" stroke="none" d="M390,-682C396,-682 402,-688 402,-694"/>
<polyline fill="none" stroke="none" points="402,-694 402,-1208 "/>
<path fill="none" stroke="none" d="M402,-1208C402,-1214 396,-1220 390,-1220"/>
<polyline fill="none" stroke="none" points="390,-1220 260,-1220 "/>
<path fill="none" stroke="none" d="M260,-1220C254,-1220 248,-1214 248,-1208"/>
<polyline fill="none" stroke="none" points="248,-1208 248,-694 "/>
<path fill="none" stroke="none" d="M248,-694C248,-688 254,-682 260,-682"/>
</g>
<!-- \\Account_Driver\\Folding -->
<g id="node3" class="node"><title>\\Account_Driver\\Folding</title>
<a xlink:href="core.libraries.account_drivers.Folding.html" xlink:title="Folding" target="_parent">
<polygon fill="none" stroke="black" points="571,-1720 507,-1720 507,-1684 571,-1684 571,-1720"/>
<text text-anchor="middle" x="539" y="-1699.2" font-family="Courier,monospace" font-size="11.00">Folding</text>
</a>
</g>
<!-- \\SC_Account_Driver -->
<g id="node45" class="node"><title>\\SC_Account_Driver</title>
<a xlink:href="core.libraries.account_drivers.Account_Driver.html" xlink:title="SC_Account_Driver" target="_parent">
<polygon fill="none" stroke="black" points="390.5,-1158 259.5,-1158 259.5,-1122 390.5,-1122 390.5,-1158"/>
<text text-anchor="middle" x="325" y="-1137.2" font-family="Courier,monospace" font-size="11.00">SC_Account_Driver</text>
</a>
</g>
<!-- \\Account_Driver\\Folding&#45;&gt;\\SC_Account_Driver -->
<g id="edge42" class="edge"><title>\\Account_Driver\\Folding&#45;&gt;\\SC_Account_Driver</title>
<path fill="none" stroke="black" d="M506.745,-1698.24C489.66,-1694.48 469.66,-1686.98 458,-1672 319.326,-1493.77 542.221,-1344.01 402,-1167 400.894,-1165.6 399.711,-1164.28 398.46,-1163.02"/>
<polygon fill="none" stroke="black" points="400.571,-1160.23 390.633,-1156.55 396.111,-1165.62 400.571,-1160.23"/>
</g>
<!-- \\CP_Module\\Settings -->
<g id="node6" class="node"><title>\\CP_Module\\Settings</title>
<a xlink:href="core.cp.modules.Settings.html" xlink:title="Settings" target="_parent">
<polygon fill="none" stroke="black" points="574.5,-1640 503.5,-1640 503.5,-1604 574.5,-1604 574.5,-1640"/>
<text text-anchor="middle" x="539" y="-1619.2" font-family="Courier,monospace" font-size="11.00">Settings</text>
</a>
</g>
<!-- \\SC_CP_Module -->
<g id="node42" class="node"><title>\\SC_CP_Module</title>
<a xlink:href="core.cp.SC_CP_Module.html" xlink:title="SC_CP_Module" target="_parent">
<polygon fill="none" stroke="black" points="374,-1104 276,-1104 276,-1068 374,-1068 374,-1104"/>
<text text-anchor="middle" x="325" y="-1083.2" font-family="Courier,monospace" font-size="11.00">SC_CP_Module</text>
</a>
</g>
<!-- \\CP_Module\\Settings&#45;&gt;\\SC_CP_Module -->
<g id="edge12" class="edge"><title>\\CP_Module\\Settings&#45;&gt;\\SC_CP_Module</title>
<path fill="none" stroke="black" d="M503.218,-1618.73C487.033,-1615.35 468.975,-1608.56 458,-1595 322.312,-1427.37 536.355,-1281.7 402,-1113 397.032,-1106.76 390.513,-1101.96 383.379,-1098.27"/>
<polygon fill="none" stroke="black" points="384.645,-1095 374.083,-1094.16 381.815,-1101.41 384.645,-1095"/>
</g>
<!-- \\CP_Module\\Transactions -->
<g id="node7" class="node"><title>\\CP_Module\\Transactions</title>
<a xlink:href="core.cp.modules.Transactions.html" xlink:title="Transactions" target="_parent">
<polygon fill="none" stroke="black" points="588,-1586 490,-1586 490,-1550 588,-1550 588,-1586"/>
<text text-anchor="middle" x="539" y="-1565.2" font-family="Courier,monospace" font-size="11.00">Transactions</text>
</a>
</g>
<!-- \\CP_Module\\Transactions&#45;&gt;\\SC_CP_Module -->
<g id="edge14" class="edge"><title>\\CP_Module\\Transactions&#45;&gt;\\SC_CP_Module</title>
<path fill="none" stroke="black" d="M489.605,-1560.98C477.656,-1556.98 466.002,-1550.74 458,-1541 336.225,-1392.76 522.596,-1262.2 402,-1113 397.049,-1106.87 390.604,-1102.14 383.561,-1098.47"/>
<polygon fill="none" stroke="black" points="384.947,-1095.26 374.388,-1094.38 382.097,-1101.65 384.947,-1095.26"/>
</g>
<!-- \\CP_Module\\Invoicing -->
<g id="node8" class="node"><title>\\CP_Module\\Invoicing</title>
<a xlink:href="core.cp.modules.Invoicing.html" xlink:title="Invoicing" target="_parent">
<polygon fill="none" stroke="black" points="577.5,-1532 500.5,-1532 500.5,-1496 577.5,-1496 577.5,-1532"/>
<text text-anchor="middle" x="539" y="-1511.2" font-family="Courier,monospace" font-size="11.00">Invoicing</text>
</a>
</g>
<!-- \\CP_Module\\Invoicing&#45;&gt;\\SC_CP_Module -->
<g id="edge16" class="edge"><title>\\CP_Module\\Invoicing&#45;&gt;\\SC_CP_Module</title>
<path fill="none" stroke="black" d="M500.13,-1509.83C484.872,-1506.21 468.444,-1499.48 458,-1487 350.114,-1358.12 508.861,-1242.73 402,-1113 396.992,-1106.92 390.516,-1102.21 383.458,-1098.56"/>
<polygon fill="none" stroke="black" points="384.834,-1095.34 374.274,-1094.48 381.992,-1101.74 384.834,-1095.34"/>
</g>
<!-- \\CP_Module\\Stock -->
<g id="node9" class="node"><title>\\CP_Module\\Stock</title>
<a xlink:href="core.cp.modules.Stock.html" xlink:title="Stock" target="_parent">
<polygon fill="none" stroke="black" points="566,-1478 512,-1478 512,-1442 566,-1442 566,-1478"/>
<text text-anchor="middle" x="539" y="-1457.2" font-family="Courier,monospace" font-size="11.00">Stock</text>
</a>
</g>
<!-- \\CP_Module\\Stock&#45;&gt;\\SC_CP_Module -->
<g id="edge18" class="edge"><title>\\CP_Module\\Stock&#45;&gt;\\SC_CP_Module</title>
<path fill="none" stroke="black" d="M511.841,-1457.99C494.038,-1455.19 471.366,-1448.57 458,-1433 363.966,-1323.44 495.163,-1223.31 402,-1113 396.918,-1106.98 390.4,-1102.31 383.322,-1098.67"/>
<polygon fill="none" stroke="black" points="384.685,-1095.45 374.124,-1094.6 381.853,-1101.85 384.685,-1095.45"/>
</g>
<!-- \\CP_Module\\Customers -->
<g id="node10" class="node"><title>\\CP_Module\\Customers</title>
<a xlink:href="core.cp.modules.Customers.html" xlink:title="Customers" target="_parent">
<polygon fill="none" stroke="black" points="577.5,-1424 500.5,-1424 500.5,-1388 577.5,-1388 577.5,-1424"/>
<text text-anchor="middle" x="539" y="-1403.2" font-family="Courier,monospace" font-size="11.00">Customers</text>
</a>
</g>
<!-- \\CP_Module\\Customers&#45;&gt;\\SC_CP_Module -->
<g id="edge20" class="edge"><title>\\CP_Module\\Customers&#45;&gt;\\SC_CP_Module</title>
<path fill="none" stroke="black" d="M500.418,-1400.04C485.211,-1395.77 468.744,-1388.48 458,-1376 380.017,-1285.44 480.768,-1202.88 402,-1113 396.988,-1107.28 390.681,-1102.77 383.855,-1099.22"/>
<polygon fill="none" stroke="black" points="384.856,-1095.83 374.298,-1094.94 381.996,-1102.22 384.856,-1095.83"/>
</g>
<!-- \\Cart_Driver\\Folding -->
<g id="node12" class="node"><title>\\Cart_Driver\\Folding</title>
<a xlink:href="core.libraries.cart_drivers.Folding.html" xlink:title="Folding" target="_parent">
<polygon fill="none" stroke="black" points="571,-1344 507,-1344 507,-1308 571,-1308 571,-1344"/>
<text text-anchor="middle" x="539" y="-1323.2" font-family="Courier,monospace" font-size="11.00">Folding</text>
</a>
</g>
<!-- \\SC_Cart_Driver -->
<g id="node44" class="node"><title>\\SC_Cart_Driver</title>
<a xlink:href="core.libraries.cart_drivers.Cart_Driver.html" xlink:title="SC_Cart_Driver" target="_parent">
<polygon fill="none" stroke="black" points="380.5,-996 269.5,-996 269.5,-960 380.5,-960 380.5,-996"/>
<text text-anchor="middle" x="325" y="-975.2" font-family="Courier,monospace" font-size="11.00">SC_Cart_Driver</text>
</a>
</g>
<!-- \\Cart_Driver\\Folding&#45;&gt;\\SC_Cart_Driver -->
<g id="edge26" class="edge"><title>\\Cart_Driver\\Folding&#45;&gt;\\SC_Cart_Driver</title>
<path fill="none" stroke="black" d="M506.788,-1321.79C489.935,-1317.89 470.151,-1310.4 458,-1296 373.045,-1195.36 487.828,-1104.9 402,-1005 398.407,-1000.82 394.121,-997.284 389.441,-994.297"/>
<polygon fill="none" stroke="black" points="391.108,-991.219 380.655,-989.49 387.748,-997.36 391.108,-991.219"/>
</g>
<!-- \\Checkout_Driver\\Folding -->
<g id="node14" class="node"><title>\\Checkout_Driver\\Folding</title>
<a xlink:href="core.libraries.checkout_drivers.Folding.html" xlink:title="Folding" target="_parent">
<polygon fill="none" stroke="black" points="571,-1264 507,-1264 507,-1228 571,-1228 571,-1264"/>
<text text-anchor="middle" x="539" y="-1243.2" font-family="Courier,monospace" font-size="11.00">Folding</text>
</a>
</g>
<!-- \\SC_Checkout_Driver -->
<g id="node47" class="node"><title>\\SC_Checkout_Driver</title>
<a xlink:href="core.libraries.checkout_drivers.Checkout_Driver.html" xlink:title="SC_Checkout_Driver" target="_parent">
<polygon fill="none" stroke="black" points="394,-942 256,-942 256,-906 394,-906 394,-942"/>
<text text-anchor="middle" x="325" y="-921.2" font-family="Courier,monospace" font-size="11.00">SC_Checkout_Driver</text>
</a>
</g>
<!-- \\Checkout_Driver\\Folding&#45;&gt;\\SC_Checkout_Driver -->
<g id="edge58" class="edge"><title>\\Checkout_Driver\\Folding&#45;&gt;\\SC_Checkout_Driver</title>
<path fill="none" stroke="black" d="M506.887,-1241.71C490.066,-1237.78 470.281,-1230.28 458,-1216 379.52,-1124.72 481.272,-1041.59 402,-951 401.262,-950.157 400.497,-949.34 399.705,-948.549"/>
<polygon fill="none" stroke="black" points="401.881,-945.806 391.957,-942.095 397.4,-951.184 401.881,-945.806"/>
</g>
<!-- \\Gateway_Driver\\Paypal_EC -->
<g id="node16" class="node"><title>\\Gateway_Driver\\Paypal_EC</title>
<a xlink:href="core.libraries.gateway_drivers.Paypal_EC.html" xlink:title="Paypal_EC" target="_parent">
<polygon fill="none" stroke="black" points="577.5,-1184 500.5,-1184 500.5,-1148 577.5,-1148 577.5,-1184"/>
<text text-anchor="middle" x="539" y="-1163.2" font-family="Courier,monospace" font-size="11.00">Paypal_EC</text>
</a>
</g>
<!-- \\SC_Gateway_Driver -->
<g id="node48" class="node"><title>\\SC_Gateway_Driver</title>
<a xlink:href="core.libraries.gateway_drivers.Gateway_Driver.html" xlink:title="SC_Gateway_Driver" target="_parent">
<polygon fill="none" stroke="black" points="390.5,-888 259.5,-888 259.5,-852 390.5,-852 390.5,-888"/>
<text text-anchor="middle" x="325" y="-867.2" font-family="Courier,monospace" font-size="11.00">SC_Gateway_Driver</text>
</a>
</g>
<!-- \\Gateway_Driver\\Paypal_EC&#45;&gt;\\SC_Gateway_Driver -->
<g id="edge60" class="edge"><title>\\Gateway_Driver\\Paypal_EC&#45;&gt;\\SC_Gateway_Driver</title>
<path fill="none" stroke="black" d="M500.185,-1161.33C485.122,-1157.61 468.829,-1150.95 458,-1139 383.858,-1057.2 475.491,-979.382 402,-897 400.98,-895.857 399.909,-894.763 398.793,-893.715"/>
<polygon fill="none" stroke="black" points="400.855,-890.883 390.833,-887.447 396.525,-896.383 400.855,-890.883"/>
</g>
<!-- \\Gateway_Driver\\Authorizedotnet_SIM -->
<g id="node17" class="node"><title>\\Gateway_Driver\\Authorizedotnet_SIM</title>
<a xlink:href="core.libraries.gateway_drivers.Authorizedotnet_SIM.html" xlink:title="Authorizedotnet_SIM" target="_parent">
<polygon fill="none" stroke="black" points="611.5,-1130 466.5,-1130 466.5,-1094 611.5,-1094 611.5,-1130"/>
<text text-anchor="middle" x="539" y="-1109.2" font-family="Courier,monospace" font-size="11.00">Authorizedotnet_SIM</text>
</a>
</g>
<!-- \\Gateway_Driver\\Authorizedotnet_SIM&#45;&gt;\\SC_Gateway_Driver -->
<g id="edge62" class="edge"><title>\\Gateway_Driver\\Authorizedotnet_SIM&#45;&gt;\\SC_Gateway_Driver</title>
<path fill="none" stroke="black" d="M473.071,-1093.92C467.515,-1090.59 462.362,-1086.65 458,-1082 399.256,-1019.32 461.288,-959.168 402,-897 400.943,-895.892 399.838,-894.829 398.69,-893.809"/>
<polygon fill="none" stroke="black" points="400.659,-890.911 390.565,-887.695 396.45,-896.504 400.659,-890.911"/>
</g>
<!-- \\Library\\Validation -->
<g id="node19" class="node"><title>\\Library\\Validation</title>
<a xlink:href="core.libraries.Validation.html" xlink:title="Validation" target="_parent">
<polygon fill="none" stroke="black" points="581,-1050 497,-1050 497,-1014 581,-1014 581,-1050"/>
<text text-anchor="middle" x="539" y="-1029.2" font-family="Courier,monospace" font-size="11.00">Validation</text>
</a>
</g>
<!-- \\SC_Library -->
<g id="node41" class="node"><title>\\SC_Library</title>
<a xlink:href="core.sc.html" xlink:title="SC_Library" target="_parent">
<polygon fill="none" stroke="black" points="367,-834 283,-834 283,-798 367,-798 367,-834"/>
<text text-anchor="middle" x="325" y="-813.2" font-family="Courier,monospace" font-size="11.00">SC_Library</text>
</a>
</g>
<!-- \\Library\\Validation&#45;&gt;\\SC_Library -->
<g id="edge24" class="edge"><title>\\Library\\Validation&#45;&gt;\\SC_Library</title>
<path fill="none" stroke="black" d="M496.674,-1025.65C482.886,-1021.71 468.403,-1015.33 458,-1005 403.935,-951.33 455.637,-897.097 402,-843 395.049,-835.989 386.161,-830.792 376.932,-826.941"/>
<polygon fill="none" stroke="black" points="377.85,-823.55 367.256,-823.397 375.442,-830.123 377.85,-823.55"/>
</g>
<!-- \\Library\\Items -->
<g id="node20" class="node"><title>\\Library\\Items</title>
<a xlink:href="core.libraries.Items.html" xlink:title="Items" target="_parent">
<polygon fill="none" stroke="black" points="566,-996 512,-996 512,-960 566,-960 566,-996"/>
<text text-anchor="middle" x="539" y="-975.2" font-family="Courier,monospace" font-size="11.00">Items</text>
</a>
</g>
<!-- \\Library\\Items&#45;&gt;\\SC_Library -->
<g id="edge28" class="edge"><title>\\Library\\Items&#45;&gt;\\SC_Library</title>
<path fill="none" stroke="black" d="M511.72,-974.32C494.764,-970.788 473.132,-963.979 458,-951 416.96,-915.798 442.76,-878.526 402,-843 394.714,-836.65 385.832,-831.761 376.745,-828.007"/>
<polygon fill="none" stroke="black" points="377.851,-824.685 367.258,-824.493 375.419,-831.249 377.851,-824.685"/>
</g>
<!-- \\Library\\Page_loading -->
<g id="node21" class="node"><title>\\Library\\Page_loading</title>
<a xlink:href="core.libraries.Page_loading.html" xlink:title="Page_loading" target="_parent">
<polygon fill="none" stroke="black" points="588,-942 490,-942 490,-906 588,-906 588,-942"/>
<text text-anchor="middle" x="539" y="-921.2" font-family="Courier,monospace" font-size="11.00">Page_loading</text>
</a>
</g>
<!-- \\Library\\Page_loading&#45;&gt;\\SC_Library -->
<g id="edge30" class="edge"><title>\\Library\\Page_loading&#45;&gt;\\SC_Library</title>
<path fill="none" stroke="black" d="M489.924,-911.608C479.012,-907.768 467.769,-902.941 458,-897 428.458,-879.035 431.399,-861.198 402,-843 394.218,-838.183 385.456,-834.066 376.722,-830.605"/>
<polygon fill="none" stroke="black" points="377.895,-827.307 367.302,-827.105 375.457,-833.869 377.895,-827.307"/>
</g>
<!-- \\Library\\Config -->
<g id="node22" class="node"><title>\\Library\\Config</title>
<a xlink:href="core.libraries.Config.html" xlink:title="Config" target="_parent">
<polygon fill="none" stroke="black" points="567.5,-888 510.5,-888 510.5,-852 567.5,-852 567.5,-888"/>
<text text-anchor="middle" x="539" y="-867.2" font-family="Courier,monospace" font-size="11.00">Config</text>
</a>
</g>
<!-- \\Library\\Config&#45;&gt;\\SC_Library -->
<g id="edge32" class="edge"><title>\\Library\\Config&#45;&gt;\\SC_Library</title>
<path fill="none" stroke="black" d="M510.285,-862.94C476.515,-854.339 418.795,-839.636 376.935,-828.974"/>
<polygon fill="none" stroke="black" points="377.748,-825.57 367.194,-826.493 376.021,-832.353 377.748,-825.57"/>
</g>
<!-- \\Library\\CP -->
<g id="node23" class="node"><title>\\Library\\CP</title>
<a xlink:href="core.libraries.CP.html" xlink:title="CP" target="_parent">
<polygon fill="none" stroke="black" points="566,-834 512,-834 512,-798 566,-798 566,-834"/>
<text text-anchor="middle" x="539" y="-813.2" font-family="Courier,monospace" font-size="11.00">CP</text>
</a>
</g>
<!-- \\Library\\CP&#45;&gt;\\SC_Library -->
<g id="edge34" class="edge"><title>\\Library\\CP&#45;&gt;\\SC_Library</title>
<path fill="none" stroke="black" d="M511.579,-816C478.15,-816 419.838,-816 377.482,-816"/>
<polygon fill="none" stroke="black" points="377.353,-812.5 367.353,-816 377.353,-819.5 377.353,-812.5"/>
</g>
<!-- \\Library\\Messaging -->
<g id="node24" class="node"><title>\\Library\\Messaging</title>
<a xlink:href="core.libraries.Messaging.html" xlink:title="Messaging" target="_parent">
<polygon fill="none" stroke="black" points="577.5,-780 500.5,-780 500.5,-744 577.5,-744 577.5,-780"/>
<text text-anchor="middle" x="539" y="-759.2" font-family="Courier,monospace" font-size="11.00">Messaging</text>
</a>
</g>
<!-- \\Library\\Messaging&#45;&gt;\\SC_Library -->
<g id="edge36" class="edge"><title>\\Library\\Messaging&#45;&gt;\\SC_Library</title>
<path fill="none" stroke="black" d="M500.099,-771.654C465.769,-780.398 414.914,-793.352 377.021,-803.004"/>
<polygon fill="none" stroke="black" points="376.021,-799.647 367.194,-805.507 377.748,-806.43 376.021,-799.647"/>
</g>
<!-- \\Library\\Discounts -->
<g id="node25" class="node"><title>\\Library\\Discounts</title>
<a xlink:href="core.libraries.Discounts.html" xlink:title="Discounts" target="_parent">
<polygon fill="none" stroke="black" points="577.5,-726 500.5,-726 500.5,-690 577.5,-690 577.5,-726"/>
<text text-anchor="middle" x="539" y="-705.2" font-family="Courier,monospace" font-size="11.00">Discounts</text>
</a>
</g>
<!-- \\Library\\Discounts&#45;&gt;\\SC_Library -->
<g id="edge38" class="edge"><title>\\Library\\Discounts&#45;&gt;\\SC_Library</title>
<path fill="none" stroke="black" d="M500.254,-716.999C486.37,-721.252 470.9,-727.155 458,-735 428.458,-752.965 431.399,-770.802 402,-789 394.218,-793.817 385.456,-797.934 376.722,-801.395"/>
<polygon fill="none" stroke="black" points="375.457,-798.131 367.302,-804.895 377.895,-804.693 375.457,-798.131"/>
</g>
<!-- \\Library\\CP_Session -->
<g id="node26" class="node"><title>\\Library\\CP_Session</title>
<a xlink:href="core.libraries.CP_Session.html" xlink:title="CP_Session" target="_parent">
<polygon fill="none" stroke="black" points="581,-672 497,-672 497,-636 581,-636 581,-672"/>
<text text-anchor="middle" x="539" y="-651.2" font-family="Courier,monospace" font-size="11.00">CP_Session</text>
</a>
</g>
<!-- \\Library\\CP_Session&#45;&gt;\\SC_Library -->
<g id="edge40" class="edge"><title>\\Library\\CP_Session&#45;&gt;\\SC_Library</title>
<path fill="none" stroke="black" d="M496.655,-661.471C483.183,-665.499 468.904,-671.647 458,-681 416.96,-716.202 442.76,-753.474 402,-789 394.714,-795.35 385.832,-800.239 376.745,-803.993"/>
<polygon fill="none" stroke="black" points="375.419,-800.751 367.258,-807.507 377.851,-807.315 375.419,-800.751"/>
</g>
<!-- \\Library\\Shipping -->
<g id="node27" class="node"><title>\\Library\\Shipping</title>
<a xlink:href="core.libraries.Shipping.html" xlink:title="Shipping" target="_parent">
<polygon fill="none" stroke="black" points="574.5,-618 503.5,-618 503.5,-582 574.5,-582 574.5,-618"/>
<text text-anchor="middle" x="539" y="-597.2" font-family="Courier,monospace" font-size="11.00">Shipping</text>
</a>
</g>
<!-- \\Library\\Shipping&#45;&gt;\\SC_Library -->
<g id="edge44" class="edge"><title>\\Library\\Shipping&#45;&gt;\\SC_Library</title>
<path fill="none" stroke="black" d="M503.219,-604.645C487.625,-608.354 470.068,-615.021 458,-627 403.935,-680.67 455.637,-734.903 402,-789 395.049,-796.011 386.161,-801.208 376.932,-805.059"/>
<polygon fill="none" stroke="black" points="375.442,-801.877 367.256,-808.603 377.85,-808.45 375.442,-801.877"/>
</g>
<!-- \\Library\\Transactions -->
<g id="node28" class="node"><title>\\Library\\Transactions</title>
<a xlink:href="core.libraries.Transactions.html" xlink:title="Transactions" target="_parent">
<polygon fill="none" stroke="black" points="588,-564 490,-564 490,-528 588,-528 588,-564"/>
<text text-anchor="middle" x="539" y="-543.2" font-family="Courier,monospace" font-size="11.00">Transactions</text>
</a>
</g>
<!-- \\Library\\Transactions&#45;&gt;\\SC_Library -->
<g id="edge46" class="edge"><title>\\Library\\Transactions&#45;&gt;\\SC_Library</title>
<path fill="none" stroke="black" d="M489.964,-553.838C478.16,-557.838 466.488,-563.879 458,-573 390.436,-645.599 468.986,-715.867 402,-789 395.19,-796.434 386.2,-801.823 376.793,-805.728"/>
<polygon fill="none" stroke="black" points="375.525,-802.464 367.313,-809.159 377.907,-809.047 375.525,-802.464"/>
</g>
<!-- \\Library\\Stock -->
<g id="node29" class="node"><title>\\Library\\Stock</title>
<a xlink:href="core.libraries.Stock.html" xlink:title="Stock" target="_parent">
<polygon fill="none" stroke="black" points="566,-510 512,-510 512,-474 566,-474 566,-510"/>
<text text-anchor="middle" x="539" y="-489.2" font-family="Courier,monospace" font-size="11.00">Stock</text>
</a>
</g>
<!-- \\Library\\Stock&#45;&gt;\\SC_Library -->
<g id="edge54" class="edge"><title>\\Library\\Stock&#45;&gt;\\SC_Library</title>
<path fill="none" stroke="black" d="M511.99,-494.145C494.257,-497.003 471.607,-503.638 458,-519 376.739,-610.739 482.531,-696.619 402,-789 395.306,-796.679 386.279,-802.174 376.786,-806.106"/>
<polygon fill="none" stroke="black" points="375.438,-802.871 367.206,-809.54 377.801,-809.46 375.438,-802.871"/>
</g>
<!-- \\Library\\Session -->
<g id="node30" class="node"><title>\\Library\\Session</title>
<a xlink:href="core.libraries.Session.html" xlink:title="Session" target="_parent">
<polygon fill="none" stroke="black" points="571,-456 507,-456 507,-420 571,-420 571,-456"/>
<text text-anchor="middle" x="539" y="-435.2" font-family="Courier,monospace" font-size="11.00">Session</text>
</a>
</g>
<!-- \\Library\\Session&#45;&gt;\\SC_Library -->
<g id="edge56" class="edge"><title>\\Library\\Session&#45;&gt;\\SC_Library</title>
<path fill="none" stroke="black" d="M506.756,-440.887C489.893,-444.105 470.11,-450.861 458,-465 362.941,-575.992 496.176,-677.257 402,-789 395.368,-796.87 386.279,-802.446 376.691,-806.397"/>
<polygon fill="none" stroke="black" points="375.264,-803.19 367.009,-809.832 377.604,-809.787 375.264,-803.19"/>
</g>
<!-- \\Library\\Cart -->
<g id="node31" class="node"><title>\\Library\\Cart</title>
<a xlink:href="core.libraries.Cart.html" xlink:title="Cart" target="_parent">
<polygon fill="none" stroke="black" points="566,-402 512,-402 512,-366 566,-366 566,-402"/>
<text text-anchor="middle" x="539" y="-381.2" font-family="Courier,monospace" font-size="11.00">Cart</text>
</a>
</g>
<!-- \\Library\\Cart&#45;&gt;\\SC_Library -->
<g id="edge64" class="edge"><title>\\Library\\Cart&#45;&gt;\\SC_Library</title>
<path fill="none" stroke="black" d="M511.715,-385.908C493.853,-388.655 471.161,-395.254 458,-411 349.086,-541.312 509.877,-657.829 402,-789 395.463,-796.949 386.415,-802.559 376.836,-806.518"/>
<polygon fill="none" stroke="black" points="375.409,-803.311 367.154,-809.952 377.749,-809.908 375.409,-803.311"/>
</g>
<!-- \\Library\\Gateways -->
<g id="node32" class="node"><title>\\Library\\Gateways</title>
<a xlink:href="core.libraries.Gateways.html" xlink:title="Gateways" target="_parent">
<polygon fill="none" stroke="black" points="574.5,-348 503.5,-348 503.5,-312 574.5,-312 574.5,-348"/>
<text text-anchor="middle" x="539" y="-327.2" font-family="Courier,monospace" font-size="11.00">Gateways</text>
</a>
</g>
<!-- \\Library\\Gateways&#45;&gt;\\SC_Library -->
<g id="edge66" class="edge"><title>\\Library\\Gateways&#45;&gt;\\SC_Library</title>
<path fill="none" stroke="black" d="M503.295,-333.335C487.129,-336.732 469.065,-343.515 458,-357 335.195,-506.674 523.614,-638.357 402,-789 395.535,-797.008 386.518,-802.643 376.946,-806.608"/>
<polygon fill="none" stroke="black" points="375.519,-803.401 367.265,-810.042 377.859,-809.998 375.519,-803.401"/>
</g>
<!-- \\Library\\URI -->
<g id="node33" class="node"><title>\\Library\\URI</title>
<a xlink:href="core.libraries.URI.html" xlink:title="URI" target="_parent">
<polygon fill="none" stroke="black" points="566,-294 512,-294 512,-258 566,-258 566,-294"/>
<text text-anchor="middle" x="539" y="-273.2" font-family="Courier,monospace" font-size="11.00">URI</text>
</a>
</g>
<!-- \\Library\\URI&#45;&gt;\\SC_Library -->
<g id="edge68" class="edge"><title>\\Library\\URI&#45;&gt;\\SC_Library</title>
<path fill="none" stroke="black" d="M511.941,-277.721C493.945,-280.37 470.996,-286.929 458,-303 321.28,-472.066 537.375,-618.856 402,-789 395.592,-797.054 386.599,-802.708 377.033,-806.678"/>
<polygon fill="none" stroke="black" points="375.606,-803.47 367.351,-810.112 377.946,-810.068 375.606,-803.47"/>
</g>
<!-- \\Library\\Customer -->
<g id="node34" class="node"><title>\\Library\\Customer</title>
<a xlink:href="core.libraries.Customer.html" xlink:title="Customer" target="_parent">
<polygon fill="none" stroke="black" points="574.5,-240 503.5,-240 503.5,-204 574.5,-204 574.5,-240"/>
<text text-anchor="middle" x="539" y="-219.2" font-family="Courier,monospace" font-size="11.00">Customer</text>
</a>
</g>
<!-- \\Library\\Customer&#45;&gt;\\SC_Library -->
<g id="edge70" class="edge"><title>\\Library\\Customer&#45;&gt;\\SC_Library</title>
<path fill="none" stroke="black" d="M503.146,-225.214C486.943,-228.582 468.891,-235.374 458,-249 307.349,-437.477 551.152,-599.334 402,-789 395.506,-797.258 386.291,-802.994 376.508,-806.978"/>
<polygon fill="none" stroke="black" points="375.314,-803.688 367.024,-810.286 377.619,-810.297 375.314,-803.688"/>
</g>
<!-- \\Shipping_Driver\\Pickup -->
<g id="node36" class="node"><title>\\Shipping_Driver\\Pickup</title>
<a xlink:href="core.libraries.shipping_drivers.Pickup.html" xlink:title="Pickup" target="_parent">
<polygon fill="none" stroke="black" points="567.5,-160 510.5,-160 510.5,-124 567.5,-124 567.5,-160"/>
<text text-anchor="middle" x="539" y="-139.2" font-family="Courier,monospace" font-size="11.00">Pickup</text>
</a>
</g>
<!-- \\SC_Shipping_Driver -->
<g id="node46" class="node"><title>\\SC_Shipping_Driver</title>
<a xlink:href="core.libraries.shipping_drivers.Shipping_Driver.html" xlink:title="SC_Shipping_Driver" target="_parent">
<polygon fill="none" stroke="black" points="394,-780 256,-780 256,-744 394,-744 394,-780"/>
<text text-anchor="middle" x="325" y="-759.2" font-family="Courier,monospace" font-size="11.00">SC_Shipping_Driver</text>
</a>
</g>
<!-- \\Shipping_Driver\\Pickup&#45;&gt;\\SC_Shipping_Driver -->
<g id="edge48" class="edge"><title>\\Shipping_Driver\\Pickup&#45;&gt;\\SC_Shipping_Driver</title>
<path fill="none" stroke="black" d="M510.3,-151.851C492.271,-159.789 469.958,-172.82 458,-192 329.645,-397.879 551.917,-544.249 402,-735 401.513,-735.619 401.011,-736.224 400.495,-736.816"/>
<polygon fill="none" stroke="black" points="397.982,-734.373 393.045,-743.748 402.75,-739.498 397.982,-734.373"/>
</g>
<!-- \\Shipping_Driver\\UPS -->
<g id="node37" class="node"><title>\\Shipping_Driver\\UPS</title>
<a xlink:href="core.libraries.shipping_drivers.UPS.html" xlink:title="UPS" target="_parent">
<polygon fill="none" stroke="black" points="566,-106 512,-106 512,-70 566,-70 566,-106"/>
<text text-anchor="middle" x="539" y="-85.2" font-family="Courier,monospace" font-size="11.00">UPS</text>
</a>
</g>
<!-- \\Shipping_Driver\\UPS&#45;&gt;\\SC_Shipping_Driver -->
<g id="edge50" class="edge"><title>\\Shipping_Driver\\UPS&#45;&gt;\\SC_Shipping_Driver</title>
<path fill="none" stroke="black" d="M511.82,-89.6248C493.766,-92.2275 470.797,-98.7699 458,-115 372.344,-223.631 486.791,-625.693 402,-735 401.517,-735.622 401.019,-736.23 400.506,-736.824"/>
<polygon fill="none" stroke="black" points="397.987,-734.389 393.094,-743.786 402.779,-739.491 397.987,-734.389"/>
</g>
<!-- \\Shipping_Driver\\USPS -->
<g id="node38" class="node"><title>\\Shipping_Driver\\USPS</title>
<a xlink:href="core.libraries.shipping_drivers.USPS.html" xlink:title="USPS" target="_parent">
<polygon fill="none" stroke="black" points="566,-52 512,-52 512,-16 566,-16 566,-52"/>
<text text-anchor="middle" x="539" y="-31.2" font-family="Courier,monospace" font-size="11.00">USPS</text>
</a>
</g>
<!-- \\Shipping_Driver\\USPS&#45;&gt;\\SC_Shipping_Driver -->
<g id="edge52" class="edge"><title>\\Shipping_Driver\\USPS&#45;&gt;\\SC_Shipping_Driver</title>
<path fill="none" stroke="black" d="M511.785,-35.5971C493.714,-38.1863 470.739,-44.724 458,-61 365.367,-179.352 493.692,-615.917 402,-735 401.519,-735.624 401.023,-736.234 400.513,-736.829"/>
<polygon fill="none" stroke="black" points="397.99,-734.397 393.122,-743.807 402.796,-739.487 397.99,-734.397"/>
</g>
<!-- \\SC -->
<g id="node40" class="node"><title>\\SC</title>
<a xlink:href="core.sc.html" xlink:title="SC" target="_parent">
<polygon fill="none" stroke="black" points="352,-1212 298,-1212 298,-1176 352,-1176 352,-1212"/>
<text text-anchor="middle" x="325" y="-1191.2" font-family="Courier,monospace" font-size="11.00">SC</text>
</a>
</g>
<!-- \\SC_Model -->
<g id="node43" class="node"><title>\\SC_Model</title>
<a xlink:href="core.sc_model.html" xlink:title="SC_Model" target="_parent">
<polygon fill="none" stroke="black" points="360.5,-1050 289.5,-1050 289.5,-1014 360.5,-1014 360.5,-1050"/>
<text text-anchor="middle" x="325" y="-1029.2" font-family="Courier,monospace" font-size="11.00">SC_Model</text>
</a>
</g>
<!-- \\ActiveRecord\\model -->
<g id="node56" class="node"><title>\\ActiveRecord\\model</title>
<ellipse fill="none" stroke="black" cx="92" cy="-1032" rx="91.784" ry="18"/>
<text text-anchor="middle" x="92" y="-1028.3" font-family="Times,serif" font-size="14.00" fill="gray">\ActiveRecord\model</text>
</g>
<!-- \\SC_Model&#45;&gt;\\ActiveRecord\\model -->
<g id="edge22" class="edge"><title>\\SC_Model&#45;&gt;\\ActiveRecord\\model</title>
<path fill="none" stroke="black" d="M289.417,-1032C263.986,-1032 228.037,-1032 193.833,-1032"/>
<polygon fill="none" stroke="black" points="193.766,-1028.5 183.766,-1032 193.766,-1035.5 193.766,-1028.5"/>
</g>
<!-- \\UploadHandler -->
<g id="node49" class="node"><title>\\UploadHandler</title>
<a xlink:href="upload.class.html" xlink:title="UploadHandler" target="_parent">
<polygon fill="none" stroke="black" points="377,-726 273,-726 273,-690 377,-690 377,-726"/>
<text text-anchor="middle" x="325" y="-705.2" font-family="Courier,monospace" font-size="11.00">UploadHandler</text>
</a>
</g>
</g>
</svg>
