<?xml version="1.0" encoding="UTF-8" standalone="no"?>
<!DOCTYPE svg PUBLIC "-//W3C//DTD SVG 1.1//EN"
 "http://www.w3.org/Graphics/SVG/1.1/DTD/svg11.dtd">
<!-- Generated by graphviz version 2.28.0 (20111211.2114)
 -->
<!-- Title: G Pages: 1 -->
<svg width="396pt" height="1198pt"
 viewBox="0.00 0.00 396.00 1198.00" xmlns="http://www.w3.org/2000/svg" xmlns:xlink="http://www.w3.org/1999/xlink">
<g id="graph1" class="graph" transform="scale(1 1) rotate(0) translate(4 1194)">
<title>G</title>
<polygon fill="white" stroke="white" points="-4,5 -4,-1194 393,-1194 393,5 -4,5"/>
<g id="graph2" class="cluster"><title>cluster_Account_Driver</title>
<polyline fill="none" stroke="gray" points="266,-1110 331,-1110 "/>
<path fill="none" stroke="gray" d="M331,-1110C337,-1110 343,-1116 343,-1122"/>
<polyline fill="none" stroke="gray" points="343,-1122 343,-1170 "/>
<path fill="none" stroke="gray" d="M343,-1170C343,-1176 337,-1182 331,-1182"/>
<polyline fill="none" stroke="gray" points="331,-1182 266,-1182 "/>
<path fill="none" stroke="gray" d="M266,-1182C260,-1182 254,-1176 254,-1170"/>
<polyline fill="none" stroke="gray" points="254,-1170 254,-1122 "/>
<path fill="none" stroke="gray" d="M254,-1122C254,-1116 260,-1110 266,-1110"/>
<text text-anchor="middle" x="298.5" y="-1169.2" font-family="Times,serif" font-size="11.00" fill="gray">Account_Driver</text>
</g>
<g id="graph4" class="cluster"><title>cluster_Cart_Driver</title>
<polyline fill="none" stroke="gray" points="271,-1030 327,-1030 "/>
<path fill="none" stroke="gray" d="M327,-1030C333,-1030 339,-1036 339,-1042"/>
<polyline fill="none" stroke="gray" points="339,-1042 339,-1090 "/>
<path fill="none" stroke="gray" d="M339,-1090C339,-1096 333,-1102 327,-1102"/>
<polyline fill="none" stroke="gray" points="327,-1102 271,-1102 "/>
<path fill="none" stroke="gray" d="M271,-1102C265,-1102 259,-1096 259,-1090"/>
<polyline fill="none" stroke="gray" points="259,-1090 259,-1042 "/>
<path fill="none" stroke="gray" d="M259,-1042C259,-1036 265,-1030 271,-1030"/>
<text text-anchor="middle" x="299" y="-1089.2" font-family="Times,serif" font-size="11.00" fill="gray">Cart_Driver</text>
</g>
<g id="graph5" class="cluster"><title>cluster_Checkout_Driver</title>
<polyline fill="none" stroke="gray" points="264,-950 333,-950 "/>
<path fill="none" stroke="gray" d="M333,-950C339,-950 345,-956 345,-962"/>
<polyline fill="none" stroke="gray" points="345,-962 345,-1010 "/>
<path fill="none" stroke="gray" d="M345,-1010C345,-1016 339,-1022 333,-1022"/>
<polyline fill="none" stroke="gray" points="333,-1022 264,-1022 "/>
<path fill="none" stroke="gray" d="M264,-1022C258,-1022 252,-1016 252,-1010"/>
<polyline fill="none" stroke="gray" points="252,-1010 252,-962 "/>
<path fill="none" stroke="gray" d="M252,-962C252,-956 258,-950 264,-950"/>
<text text-anchor="middle" x="298.5" y="-1009.2" font-family="Times,serif" font-size="11.00" fill="gray">Checkout_Driver</text>
</g>
<g id="graph6" class="cluster"><title>cluster_Gateway_Driver</title>
<polyline fill="none" stroke="gray" points="230,-816 368,-816 "/>
<path fill="none" stroke="gray" d="M368,-816C374,-816 380,-822 380,-828"/>
<polyline fill="none" stroke="gray" points="380,-828 380,-930 "/>
<path fill="none" stroke="gray" d="M380,-930C380,-936 374,-942 368,-942"/>
<polyline fill="none" stroke="gray" points="368,-942 230,-942 "/>
<path fill="none" stroke="gray" d="M230,-942C224,-942 218,-936 218,-930"/>
<polyline fill="none" stroke="gray" points="218,-930 218,-828 "/>
<path fill="none" stroke="gray" d="M218,-828C218,-822 224,-816 230,-816"/>
<text text-anchor="middle" x="299" y="-929.2" font-family="Times,serif" font-size="11.00" fill="gray">Gateway_Driver</text>
</g>
<g id="graph7" class="cluster"><title>cluster_Library</title>
<polyline fill="none" stroke="gray" points="254,-88 344,-88 "/>
<path fill="none" stroke="gray" d="M344,-88C350,-88 356,-94 356,-100"/>
<polyline fill="none" stroke="gray" points="356,-100 356,-796 "/>
<path fill="none" stroke="gray" d="M356,-796C356,-802 350,-808 344,-808"/>
<polyline fill="none" stroke="gray" points="344,-808 254,-808 "/>
<path fill="none" stroke="gray" d="M254,-808C248,-808 242,-802 242,-796"/>
<polyline fill="none" stroke="gray" points="242,-796 242,-100 "/>
<path fill="none" stroke="gray" d="M242,-100C242,-94 248,-88 254,-88"/>
<text text-anchor="middle" x="299" y="-795.2" font-family="Times,serif" font-size="11.00" fill="gray">Library</text>
</g>
<g id="graph8" class="cluster"><title>cluster_Shipping_Driver</title>
<polyline fill="none" stroke="gray" points="266,-8 331,-8 "/>
<path fill="none" stroke="gray" d="M331,-8C337,-8 343,-14 343,-20"/>
<polyline fill="none" stroke="gray" points="343,-20 343,-68 "/>
<path fill="none" stroke="gray" d="M343,-68C343,-74 337,-80 331,-80"/>
<polyline fill="none" stroke="gray" points="331,-80 266,-80 "/>
<path fill="none" stroke="gray" d="M266,-80C260,-80 254,-74 254,-68"/>
<polyline fill="none" stroke="gray" points="254,-68 254,-20 "/>
<path fill="none" stroke="gray" d="M254,-20C254,-14 260,-8 266,-8"/>
<text text-anchor="middle" x="298.5" y="-67.2" font-family="Times,serif" font-size="11.00" fill="gray">Shipping_Driver</text>
</g>
<g id="graph9" class="cluster"><title>cluster_default</title>
<polyline fill="none" stroke="none" points="20,-466 150,-466 "/>
<path fill="none" stroke="none" d="M150,-466C156,-466 162,-472 162,-478"/>
<polyline fill="none" stroke="none" points="162,-478 162,-830 "/>
<path fill="none" stroke="none" d="M162,-830C162,-836 156,-842 150,-842"/>
<polyline fill="none" stroke="none" points="150,-842 20,-842 "/>
<path fill="none" stroke="none" d="M20,-842C14,-842 8,-836 8,-830"/>
<polyline fill="none" stroke="none" points="8,-830 8,-478 "/>
<path fill="none" stroke="none" d="M8,-478C8,-472 14,-466 20,-466"/>
</g>
<!-- \\Account_Driver\\Folding -->
<g id="node2" class="node"><title>\\Account_Driver\\Folding</title>
<a xlink:href="core.libraries.account_drivers.Folding.html" xlink:title="Folding" target="_parent">
<polygon fill="none" stroke="black" points="331,-1154 267,-1154 267,-1118 331,-1118 331,-1154"/>
<text text-anchor="middle" x="299" y="-1133.2" font-family="Courier,monospace" font-size="11.00">Folding</text>
</a>
</g>
<!-- \\SC_Account_Driver -->
<g id="node31" class="node"><title>\\SC_Account_Driver</title>
<a xlink:href="core.libraries.account_drivers.Account_Driver.html" xlink:title="SC_Account_Driver" target="_parent">
<polygon fill="none" stroke="black" points="150.5,-780 19.5,-780 19.5,-744 150.5,-744 150.5,-780"/>
<text text-anchor="middle" x="85" y="-759.2" font-family="Courier,monospace" font-size="11.00">SC_Account_Driver</text>
</a>
</g>
<!-- \\Account_Driver\\Folding&#45;&gt;\\SC_Account_Driver -->
<g id="edge22" class="edge"><title>\\Account_Driver\\Folding&#45;&gt;\\SC_Account_Driver</title>
<path fill="none" stroke="black" d="M266.704,-1131.86C249.824,-1127.98 230.041,-1120.49 218,-1106 126.551,-995.971 254.403,-898.228 162,-789 160.983,-787.797 159.908,-786.648 158.783,-785.55"/>
<polygon fill="none" stroke="black" points="160.679,-782.583 150.701,-779.022 156.28,-788.028 160.679,-782.583"/>
</g>
<!-- \\Cart_Driver\\Folding -->
<g id="node5" class="node"><title>\\Cart_Driver\\Folding</title>
<a xlink:href="core.libraries.cart_drivers.Folding.html" xlink:title="Folding" target="_parent">
<polygon fill="none" stroke="black" points="331,-1074 267,-1074 267,-1038 331,-1038 331,-1074"/>
<text text-anchor="middle" x="299" y="-1053.2" font-family="Courier,monospace" font-size="11.00">Folding</text>
</a>
</g>
<!-- \\SC_Cart_Driver -->
<g id="node30" class="node"><title>\\SC_Cart_Driver</title>
<a xlink:href="core.libraries.cart_drivers.Cart_Driver.html" xlink:title="SC_Cart_Driver" target="_parent">
<polygon fill="none" stroke="black" points="140.5,-726 29.5,-726 29.5,-690 140.5,-690 140.5,-726"/>
<text text-anchor="middle" x="85" y="-705.2" font-family="Courier,monospace" font-size="11.00">SC_Cart_Driver</text>
</a>
</g>
<!-- \\Cart_Driver\\Folding&#45;&gt;\\SC_Cart_Driver -->
<g id="edge12" class="edge"><title>\\Cart_Driver\\Folding&#45;&gt;\\SC_Cart_Driver</title>
<path fill="none" stroke="black" d="M266.788,-1051.79C249.935,-1047.89 230.151,-1040.4 218,-1026 133.045,-925.356 247.828,-834.9 162,-735 158.407,-730.818 154.121,-727.284 149.441,-724.297"/>
<polygon fill="none" stroke="black" points="151.108,-721.219 140.655,-719.49 147.748,-727.36 151.108,-721.219"/>
</g>
<!-- \\Checkout_Driver\\Folding -->
<g id="node7" class="node"><title>\\Checkout_Driver\\Folding</title>
<a xlink:href="core.libraries.checkout_drivers.Folding.html" xlink:title="Folding" target="_parent">
<polygon fill="none" stroke="black" points="331,-994 267,-994 267,-958 331,-958 331,-994"/>
<text text-anchor="middle" x="299" y="-973.2" font-family="Courier,monospace" font-size="11.00">Folding</text>
</a>
</g>
<!-- \\SC_Checkout_Driver -->
<g id="node33" class="node"><title>\\SC_Checkout_Driver</title>
<a xlink:href="core.libraries.checkout_drivers.Checkout_Driver.html" xlink:title="SC_Checkout_Driver" target="_parent">
<polygon fill="none" stroke="black" points="154,-672 16,-672 16,-636 154,-636 154,-672"/>
<text text-anchor="middle" x="85" y="-651.2" font-family="Courier,monospace" font-size="11.00">SC_Checkout_Driver</text>
</a>
</g>
<!-- \\Checkout_Driver\\Folding&#45;&gt;\\SC_Checkout_Driver -->
<g id="edge34" class="edge"><title>\\Checkout_Driver\\Folding&#45;&gt;\\SC_Checkout_Driver</title>
<path fill="none" stroke="black" d="M266.887,-971.706C250.066,-967.779 230.281,-960.285 218,-946 139.52,-854.72 241.272,-771.593 162,-681 161.262,-680.157 160.497,-679.34 159.705,-678.549"/>
<polygon fill="none" stroke="black" points="161.881,-675.806 151.957,-672.095 157.4,-681.184 161.881,-675.806"/>
</g>
<!-- \\Gateway_Driver\\Paypal_EC -->
<g id="node9" class="node"><title>\\Gateway_Driver\\Paypal_EC</title>
<a xlink:href="core.libraries.gateway_drivers.Paypal_EC.html" xlink:title="Paypal_EC" target="_parent">
<polygon fill="none" stroke="black" points="337.5,-914 260.5,-914 260.5,-878 337.5,-878 337.5,-914"/>
<text text-anchor="middle" x="299" y="-893.2" font-family="Courier,monospace" font-size="11.00">Paypal_EC</text>
</a>
</g>
<!-- \\SC_Gateway_Driver -->
<g id="node34" class="node"><title>\\SC_Gateway_Driver</title>
<a xlink:href="core.libraries.gateway_drivers.Gateway_Driver.html" xlink:title="SC_Gateway_Driver" target="_parent">
<polygon fill="none" stroke="black" points="150.5,-618 19.5,-618 19.5,-582 150.5,-582 150.5,-618"/>
<text text-anchor="middle" x="85" y="-597.2" font-family="Courier,monospace" font-size="11.00">SC_Gateway_Driver</text>
</a>
</g>
<!-- \\Gateway_Driver\\Paypal_EC&#45;&gt;\\SC_Gateway_Driver -->
<g id="edge36" class="edge"><title>\\Gateway_Driver\\Paypal_EC&#45;&gt;\\SC_Gateway_Driver</title>
<path fill="none" stroke="black" d="M260.185,-891.329C245.122,-887.612 228.829,-880.947 218,-869 143.858,-787.204 235.491,-709.382 162,-627 160.98,-625.857 159.909,-624.763 158.793,-623.715"/>
<polygon fill="none" stroke="black" points="160.855,-620.883 150.833,-617.447 156.525,-626.383 160.855,-620.883"/>
</g>
<!-- \\Gateway_Driver\\Authorizedotnet_SIM -->
<g id="node10" class="node"><title>\\Gateway_Driver\\Authorizedotnet_SIM</title>
<a xlink:href="core.libraries.gateway_drivers.Authorizedotnet_SIM.html" xlink:title="Authorizedotnet_SIM" target="_parent">
<polygon fill="none" stroke="black" points="371.5,-860 226.5,-860 226.5,-824 371.5,-824 371.5,-860"/>
<text text-anchor="middle" x="299" y="-839.2" font-family="Courier,monospace" font-size="11.00">Authorizedotnet_SIM</text>
</a>
</g>
<!-- \\Gateway_Driver\\Authorizedotnet_SIM&#45;&gt;\\SC_Gateway_Driver -->
<g id="edge38" class="edge"><title>\\Gateway_Driver\\Authorizedotnet_SIM&#45;&gt;\\SC_Gateway_Driver</title>
<path fill="none" stroke="black" d="M233.071,-823.92C227.515,-820.591 222.362,-816.654 218,-812 159.256,-749.318 221.288,-689.168 162,-627 160.943,-625.892 159.838,-624.829 158.69,-623.809"/>
<polygon fill="none" stroke="black" points="160.659,-620.911 150.565,-617.695 156.45,-626.504 160.659,-620.911"/>
</g>
<!-- \\Library\\Validation -->
<g id="node12" class="node"><title>\\Library\\Validation</title>
<a xlink:href="core.libraries.Validation.html" xlink:title="Validation" target="_parent">
<polygon fill="none" stroke="black" points="341,-780 257,-780 257,-744 341,-744 341,-780"/>
<text text-anchor="middle" x="299" y="-759.2" font-family="Courier,monospace" font-size="11.00">Validation</text>
</a>
</g>
<!-- \\SC_Library -->
<g id="node29" class="node"><title>\\SC_Library</title>
<a xlink:href="core.sc.html" xlink:title="SC_Library" target="_parent">
<polygon fill="none" stroke="black" points="127,-564 43,-564 43,-528 127,-528 127,-564"/>
<text text-anchor="middle" x="85" y="-543.2" font-family="Courier,monospace" font-size="11.00">SC_Library</text>
</a>
</g>
<!-- \\Library\\Validation&#45;&gt;\\SC_Library -->
<g id="edge10" class="edge"><title>\\Library\\Validation&#45;&gt;\\SC_Library</title>
<path fill="none" stroke="black" d="M256.674,-755.646C242.886,-751.706 228.403,-745.327 218,-735 163.935,-681.33 215.637,-627.097 162,-573 155.049,-565.989 146.161,-560.792 136.932,-556.941"/>
<polygon fill="none" stroke="black" points="137.85,-553.55 127.256,-553.397 135.442,-560.123 137.85,-553.55"/>
</g>
<!-- \\Library\\Items -->
<g id="node13" class="node"><title>\\Library\\Items</title>
<a xlink:href="core.libraries.Items.html" xlink:title="Items" target="_parent">
<polygon fill="none" stroke="black" points="326,-726 272,-726 272,-690 326,-690 326,-726"/>
<text text-anchor="middle" x="299" y="-705.2" font-family="Courier,monospace" font-size="11.00">Items</text>
</a>
</g>
<!-- \\Library\\Items&#45;&gt;\\SC_Library -->
<g id="edge14" class="edge"><title>\\Library\\Items&#45;&gt;\\SC_Library</title>
<path fill="none" stroke="black" d="M271.72,-704.32C254.764,-700.788 233.132,-693.979 218,-681 176.96,-645.798 202.76,-608.526 162,-573 154.714,-566.65 145.832,-561.761 136.745,-558.007"/>
<polygon fill="none" stroke="black" points="137.851,-554.685 127.258,-554.493 135.419,-561.249 137.851,-554.685"/>
</g>
<!-- \\Library\\Page_loading -->
<g id="node14" class="node"><title>\\Library\\Page_loading</title>
<a xlink:href="core.libraries.Page_loading.html" xlink:title="Page_loading" target="_parent">
<polygon fill="none" stroke="black" points="348,-672 250,-672 250,-636 348,-636 348,-672"/>
<text text-anchor="middle" x="299" y="-651.2" font-family="Courier,monospace" font-size="11.00">Page_loading</text>
</a>
</g>
<!-- \\Library\\Page_loading&#45;&gt;\\SC_Library -->
<g id="edge16" class="edge"><title>\\Library\\Page_loading&#45;&gt;\\SC_Library</title>
<path fill="none" stroke="black" d="M249.924,-641.608C239.012,-637.768 227.769,-632.941 218,-627 188.458,-609.035 191.399,-591.198 162,-573 154.218,-568.183 145.456,-564.066 136.722,-560.605"/>
<polygon fill="none" stroke="black" points="137.895,-557.307 127.302,-557.105 135.457,-563.869 137.895,-557.307"/>
</g>
<!-- \\Library\\Config -->
<g id="node15" class="node"><title>\\Library\\Config</title>
<a xlink:href="core.libraries.Config.html" xlink:title="Config" target="_parent">
<polygon fill="none" stroke="black" points="327.5,-618 270.5,-618 270.5,-582 327.5,-582 327.5,-618"/>
<text text-anchor="middle" x="299" y="-597.2" font-family="Courier,monospace" font-size="11.00">Config</text>
</a>
</g>
<!-- \\Library\\Config&#45;&gt;\\SC_Library -->
<g id="edge18" class="edge"><title>\\Library\\Config&#45;&gt;\\SC_Library</title>
<path fill="none" stroke="black" d="M270.285,-592.94C236.515,-584.339 178.795,-569.636 136.935,-558.974"/>
<polygon fill="none" stroke="black" points="137.748,-555.57 127.194,-556.493 136.021,-562.353 137.748,-555.57"/>
</g>
<!-- \\Library\\Discounts -->
<g id="node16" class="node"><title>\\Library\\Discounts</title>
<a xlink:href="core.libraries.Discounts.html" xlink:title="Discounts" target="_parent">
<polygon fill="none" stroke="black" points="337.5,-564 260.5,-564 260.5,-528 337.5,-528 337.5,-564"/>
<text text-anchor="middle" x="299" y="-543.2" font-family="Courier,monospace" font-size="11.00">Discounts</text>
</a>
</g>
<!-- \\Library\\Discounts&#45;&gt;\\SC_Library -->
<g id="edge20" class="edge"><title>\\Library\\Discounts&#45;&gt;\\SC_Library</title>
<path fill="none" stroke="black" d="M260.099,-546C225.915,-546 175.347,-546 137.505,-546"/>
<polygon fill="none" stroke="black" points="137.194,-542.5 127.194,-546 137.194,-549.5 137.194,-542.5"/>
</g>
<!-- \\Library\\Shipping -->
<g id="node17" class="node"><title>\\Library\\Shipping</title>
<a xlink:href="core.libraries.Shipping.html" xlink:title="Shipping" target="_parent">
<polygon fill="none" stroke="black" points="334.5,-510 263.5,-510 263.5,-474 334.5,-474 334.5,-510"/>
<text text-anchor="middle" x="299" y="-489.2" font-family="Courier,monospace" font-size="11.00">Shipping</text>
</a>
</g>
<!-- \\Library\\Shipping&#45;&gt;\\SC_Library -->
<g id="edge24" class="edge"><title>\\Library\\Shipping&#45;&gt;\\SC_Library</title>
<path fill="none" stroke="black" d="M263.467,-500.796C229.144,-509.539 176.108,-523.048 136.948,-533.023"/>
<polygon fill="none" stroke="black" points="135.885,-529.682 127.058,-535.542 137.613,-536.465 135.885,-529.682"/>
</g>
<!-- \\Library\\Transactions -->
<g id="node18" class="node"><title>\\Library\\Transactions</title>
<a xlink:href="core.libraries.Transactions.html" xlink:title="Transactions" target="_parent">
<polygon fill="none" stroke="black" points="348,-456 250,-456 250,-420 348,-420 348,-456"/>
<text text-anchor="middle" x="299" y="-435.2" font-family="Courier,monospace" font-size="11.00">Transactions</text>
</a>
</g>
<!-- \\Library\\Transactions&#45;&gt;\\SC_Library -->
<g id="edge26" class="edge"><title>\\Library\\Transactions&#45;&gt;\\SC_Library</title>
<path fill="none" stroke="black" d="M249.924,-450.392C239.012,-454.232 227.769,-459.059 218,-465 188.458,-482.965 191.399,-500.802 162,-519 154.218,-523.817 145.456,-527.934 136.722,-531.395"/>
<polygon fill="none" stroke="black" points="135.457,-528.131 127.302,-534.895 137.895,-534.693 135.457,-528.131"/>
</g>
<!-- \\Library\\Stock -->
<g id="node19" class="node"><title>\\Library\\Stock</title>
<a xlink:href="core.libraries.Stock.html" xlink:title="Stock" target="_parent">
<polygon fill="none" stroke="black" points="326,-402 272,-402 272,-366 326,-366 326,-402"/>
<text text-anchor="middle" x="299" y="-381.2" font-family="Courier,monospace" font-size="11.00">Stock</text>
</a>
</g>
<!-- \\Library\\Stock&#45;&gt;\\SC_Library -->
<g id="edge30" class="edge"><title>\\Library\\Stock&#45;&gt;\\SC_Library</title>
<path fill="none" stroke="black" d="M271.72,-387.68C254.764,-391.212 233.132,-398.021 218,-411 176.96,-446.202 202.76,-483.474 162,-519 154.714,-525.35 145.832,-530.239 136.745,-533.993"/>
<polygon fill="none" stroke="black" points="135.419,-530.751 127.258,-537.507 137.851,-537.315 135.419,-530.751"/>
</g>
<!-- \\Library\\Session -->
<g id="node20" class="node"><title>\\Library\\Session</title>
<a xlink:href="core.libraries.Session.html" xlink:title="Session" target="_parent">
<polygon fill="none" stroke="black" points="331,-348 267,-348 267,-312 331,-312 331,-348"/>
<text text-anchor="middle" x="299" y="-327.2" font-family="Courier,monospace" font-size="11.00">Session</text>
</a>
</g>
<!-- \\Library\\Session&#45;&gt;\\SC_Library -->
<g id="edge32" class="edge"><title>\\Library\\Session&#45;&gt;\\SC_Library</title>
<path fill="none" stroke="black" d="M266.809,-333.834C250.382,-337.351 231.004,-344.091 218,-357 163.935,-410.67 215.637,-464.903 162,-519 155.049,-526.011 146.161,-531.208 136.932,-535.059"/>
<polygon fill="none" stroke="black" points="135.442,-531.877 127.256,-538.603 137.85,-538.45 135.442,-531.877"/>
</g>
<!-- \\Library\\Cart -->
<g id="node21" class="node"><title>\\Library\\Cart</title>
<a xlink:href="core.libraries.Cart.html" xlink:title="Cart" target="_parent">
<polygon fill="none" stroke="black" points="326,-294 272,-294 272,-258 326,-258 326,-294"/>
<text text-anchor="middle" x="299" y="-273.2" font-family="Courier,monospace" font-size="11.00">Cart</text>
</a>
</g>
<!-- \\Library\\Cart&#45;&gt;\\SC_Library -->
<g id="edge40" class="edge"><title>\\Library\\Cart&#45;&gt;\\SC_Library</title>
<path fill="none" stroke="black" d="M271.842,-278.417C254.273,-281.406 231.881,-288.084 218,-303 150.436,-375.599 228.986,-445.867 162,-519 155.19,-526.434 146.2,-531.823 136.793,-535.728"/>
<polygon fill="none" stroke="black" points="135.525,-532.464 127.313,-539.159 137.907,-539.047 135.525,-532.464"/>
</g>
<!-- \\Library\\Gateways -->
<g id="node22" class="node"><title>\\Library\\Gateways</title>
<a xlink:href="core.libraries.Gateways.html" xlink:title="Gateways" target="_parent">
<polygon fill="none" stroke="black" points="334.5,-240 263.5,-240 263.5,-204 334.5,-204 334.5,-240"/>
<text text-anchor="middle" x="299" y="-219.2" font-family="Courier,monospace" font-size="11.00">Gateways</text>
</a>
</g>
<!-- \\Library\\Gateways&#45;&gt;\\SC_Library -->
<g id="edge42" class="edge"><title>\\Library\\Gateways&#45;&gt;\\SC_Library</title>
<path fill="none" stroke="black" d="M263.32,-225.791C247.362,-229.304 229.469,-236.052 218,-249 136.739,-340.739 242.531,-426.619 162,-519 155.306,-526.679 146.279,-532.174 136.786,-536.106"/>
<polygon fill="none" stroke="black" points="135.438,-532.871 127.206,-539.54 137.801,-539.46 135.438,-532.871"/>
</g>
<!-- \\Library\\URI -->
<g id="node23" class="node"><title>\\Library\\URI</title>
<a xlink:href="core.libraries.URI.html" xlink:title="URI" target="_parent">
<polygon fill="none" stroke="black" points="326,-186 272,-186 272,-150 326,-150 326,-186"/>
<text text-anchor="middle" x="299" y="-165.2" font-family="Courier,monospace" font-size="11.00">URI</text>
</a>
</g>
<!-- \\Library\\URI&#45;&gt;\\SC_Library -->
<g id="edge44" class="edge"><title>\\Library\\URI&#45;&gt;\\SC_Library</title>
<path fill="none" stroke="black" d="M271.831,-170.006C254.024,-172.799 231.349,-179.413 218,-195 122.941,-305.992 256.176,-407.257 162,-519 155.368,-526.87 146.279,-532.446 136.691,-536.397"/>
<polygon fill="none" stroke="black" points="135.264,-533.19 127.009,-539.832 137.604,-539.787 135.264,-533.19"/>
</g>
<!-- \\Library\\Customer -->
<g id="node24" class="node"><title>\\Library\\Customer</title>
<a xlink:href="core.libraries.Customer.html" xlink:title="Customer" target="_parent">
<polygon fill="none" stroke="black" points="334.5,-132 263.5,-132 263.5,-96 334.5,-96 334.5,-132"/>
<text text-anchor="middle" x="299" y="-111.2" font-family="Courier,monospace" font-size="11.00">Customer</text>
</a>
</g>
<!-- \\Library\\Customer&#45;&gt;\\SC_Library -->
<g id="edge46" class="edge"><title>\\Library\\Customer&#45;&gt;\\SC_Library</title>
<path fill="none" stroke="black" d="M263.399,-117.422C247.26,-120.84 229.187,-127.616 218,-141 109.086,-271.312 269.877,-387.829 162,-519 155.463,-526.949 146.415,-532.559 136.836,-536.518"/>
<polygon fill="none" stroke="black" points="135.409,-533.311 127.154,-539.952 137.749,-539.908 135.409,-533.311"/>
</g>
<!-- \\Shipping_Driver\\UPS -->
<g id="node26" class="node"><title>\\Shipping_Driver\\UPS</title>
<a xlink:href="core.libraries.shipping_drivers.UPS.html" xlink:title="UPS" target="_parent">
<polygon fill="none" stroke="black" points="326,-52 272,-52 272,-16 326,-16 326,-52"/>
<text text-anchor="middle" x="299" y="-31.2" font-family="Courier,monospace" font-size="11.00">UPS</text>
</a>
</g>
<!-- \\SC_Shipping_Driver -->
<g id="node32" class="node"><title>\\SC_Shipping_Driver</title>
<a xlink:href="core.libraries.shipping_drivers.Shipping_Driver.html" xlink:title="SC_Shipping_Driver" target="_parent">
<polygon fill="none" stroke="black" points="154,-510 16,-510 16,-474 154,-474 154,-510"/>
<text text-anchor="middle" x="85" y="-489.2" font-family="Courier,monospace" font-size="11.00">SC_Shipping_Driver</text>
</a>
</g>
<!-- \\Shipping_Driver\\UPS&#45;&gt;\\SC_Shipping_Driver -->
<g id="edge28" class="edge"><title>\\Shipping_Driver\\UPS&#45;&gt;\\SC_Shipping_Driver</title>
<path fill="none" stroke="black" d="M271.919,-44.5376C254.386,-52.8524 232.004,-66.0507 218,-84 124.348,-204.036 96.0868,-392.655 88.5064,-463.684"/>
<polygon fill="none" stroke="black" points="85.0207,-463.366 87.4964,-473.667 91.9852,-464.071 85.0207,-463.366"/>
</g>
<!-- \\SC -->
<g id="node28" class="node"><title>\\SC</title>
<a xlink:href="core.sc.html" xlink:title="SC" target="_parent">
<polygon fill="none" stroke="black" points="112,-834 58,-834 58,-798 112,-798 112,-834"/>
<text text-anchor="middle" x="85" y="-813.2" font-family="Courier,monospace" font-size="11.00">SC</text>
</a>
</g>
</g>
</svg>
